<?xml version="1.0" encoding="iso-8859-1"?>
<!-- Generator: Adobe Illustrator 22.1.0, SVG Export Plug-In . SVG Version: 6.00 Build 0)  -->
<svg xmlns="http://www.w3.org/2000/svg" xmlns:xlink="http://www.w3.org/1999/xlink" version="1.1" id="Layer_1" x="0px" y="0px" viewBox="0 0 128 128" style="enable-background:new 0 0 128 128;" xml:space="preserve">
<path style="fill:#FFFFFF;" d="M44,4v105l50-5c5.5,0,10-4.5,10-10V4L94,14L84,4L74,14L64,4L54,14L44,4z"/>
<path style="fill:#444B54;" d="M94,17c-0.8,0-1.5-0.3-2.1-0.9L84,8.2l-7.9,7.9c-1.2,1.2-3.1,1.2-4.2,0l-10-10  c-1.2-1.2-1.2-3.1,0-4.2c1.2-1.2,3.1-1.2,4.2,0L74,9.8l7.9-7.9c1.2-1.2,3.1-1.2,4.2,0L94,9.8l7.9-7.9c1.2-1.2,3.1-1.2,4.2,0  c1.2,1.2,1.2,3.1,0,4.2l-10,10C95.5,16.7,94.8,17,94,17z"/>
<path style="fill:#CADBEA;" d="M74,24H44v80h50V44C94,33,85,24,74,24z"/>
<path style="fill:#444B54;" d="M44,36c-1.7,0-3-1.3-3-3V4c0-1.7,1.3-3,3-3s3,1.3,3,3v29C47,34.7,45.7,36,44,36z"/>
<path style="fill:#CADBEA;" d="M64,104V44c0-5.5,4.5-10,10-10l0,0c5.5,0,10,4.5,10,10v50c0,5.5,4.5,10,10,10l0,0  C96.8,104,64,104,64,104z"/>
<path style="fill:#444B54;" d="M94,107c-1.7,0-3-1.3-3-3s1.3-3,3-3c3.9,0,7-3.1,7-7V4c0-1.7,1.3-3,3-3s3,1.3,3,3v90  C107,101.2,101.2,107,94,107z"/>
<path style="fill:#444B54;" d="M94,107H74c-1.7,0-3-1.3-3-3s1.3-3,3-3h9c-1.3-2-2-4.4-2-7V44c0-3.9-3.1-7-7-7c-1.7,0-3-1.3-3-3  s1.3-3,3-3c7.2,0,13,5.8,13,13v50c0,3.9,3.1,7,7,7c1.7,0,3,1.3,3,3S95.7,107,94,107z"/>
<path style="fill:#6EC6AF;" d="M64,50h50c5.5,0,10,4.5,10,10v44c0,5.5-4.5,10-10,10H34c-5.5,0-10-4.5-10-10L64,50"/>
<path style="fill:#C5E8DF;" d="M74,97c-8.284,0-15-6.716-15-15s6.716-15,15-15s15,6.716,15,15S82.284,97,74,97 M114,60H56.593  L34,90.5V104h80V60"/>
<path style="fill:#EEF8F5;" d="M74,67c-8.284,0-15,6.716-15,15s6.716,15,15,15s15-6.716,15-15S82.284,67,74,67"/>
<path style="fill:#444B54;" d="M114,117H34c-7.2,0-13-5.8-13-13c0-1.7,1.3-3,3-3s3,1.3,3,3c0,3.9,3.1,7,7,7h80c3.9,0,7-3.1,7-7V60  c0-3.9-3.1-7-7-7H74c-1.7,0-3-1.3-3-3s1.3-3,3-3h40c7.2,0,13,5.8,13,13v44C127,111.2,121.2,117,114,117z"/>
<path style="fill:#FFFFFF;" d="M4,114V44c0-5.5,4.5-10,10-10h60l0,0c-5.5,0-10,4.5-10,10v70l-10,10l-10-10l-10,10l-10-10l-10,10  L4,114z"/>
<path style="fill:#444B54;" d="M54,127c-0.8,0-1.5-0.3-2.1-0.9l-7.9-7.9l-7.9,7.9c-1.2,1.2-3.1,1.2-4.2,0l-7.9-7.9l-7.9,7.9  c-1.2,1.2-3.1,1.2-4.2,0c-1.2-1.2-1.2-3.1,0-4.2l10-10c1.2-1.2,3.1-1.2,4.2,0l7.9,7.9l7.9-7.9c1.2-1.2,3.1-1.2,4.2,0l7.9,7.9l7-7V44  c0-2.6,0.8-5,2-7H14c-3.9,0-7,3.1-7,7v70c0,1.7-1.3,3-3,3s-3-1.3-3-3V44c0-7.2,5.8-13,13-13h60c1.7,0,3,1.3,3,3s-1.3,3-3,3  c-3.9,0-7,3.1-7,7v70c0,0.8-0.3,1.6-0.9,2.1l-10,10C55.5,126.7,54.8,127,54,127z"/>
<path style="fill:#9EB9D3;" d="M49,57H19c-1.7,0-3-1.3-3-3s1.3-3,3-3h30c1.7,0,3,1.3,3,3S50.7,57,49,57z"/>
<path style="fill:#9EB9D3;" d="M19,72c-0.8,0-1.6-0.3-2.1-0.9C16.3,70.6,16,69.8,16,69s0.3-1.6,0.9-2.1c1.1-1.1,3.1-1.1,4.2,0  c0.6,0.6,0.9,1.3,0.9,2.1s-0.3,1.6-0.9,2.1c-0.1,0.1-0.3,0.3-0.4,0.4c-0.2,0.1-0.3,0.2-0.5,0.3c-0.2,0.1-0.4,0.1-0.6,0.2  C19.4,72,19.2,72,19,72z"/>
<path style="fill:#9EB9D3;" d="M49,72H39c-1.7,0-3-1.3-3-3s1.3-3,3-3h10c1.7,0,3,1.3,3,3S50.7,72,49,72z"/>
<path style="fill:#9EB9D3;" d="M49,87H19c-1.7,0-3-1.3-3-3s1.3-3,3-3h30c1.7,0,3,1.3,3,3S50.7,87,49,87z"/>
<path style="fill:#9EB9D3;" d="M49,102c-0.8,0-1.6-0.3-2.1-0.9c-0.6-0.6-0.9-1.3-0.9-2.1c0-0.2,0-0.4,0.1-0.6c0-0.2,0.1-0.4,0.2-0.6  c0.1-0.2,0.2-0.3,0.3-0.5s0.2-0.3,0.4-0.5c1.1-1.1,3.1-1.1,4.2,0c0.6,0.6,0.9,1.3,0.9,2.1s-0.3,1.6-0.9,2.1  c-0.1,0.1-0.3,0.3-0.4,0.4c-0.2,0.1-0.3,0.2-0.5,0.3c-0.2,0.1-0.4,0.1-0.6,0.2C49.4,102,49.2,102,49,102z"/>
</svg>
