<?xml version="1.0" encoding="iso-8859-1"?>
<!-- Generator: Adobe Illustrator 22.1.0, SVG Export Plug-In . SVG Version: 6.00 Build 0)  -->
<svg xmlns="http://www.w3.org/2000/svg" xmlns:xlink="http://www.w3.org/1999/xlink" version="1.1" id="Layer_1" x="0px" y="0px" viewBox="0 0 100 100" style="enable-background:new 0 0 100 100;" xml:space="preserve">
<g>
	<path style="fill:#C7EDE6;" d="M87.215,56.71C88.35,54.555,89,52.105,89,49.5c0-6.621-4.159-12.257-10.001-14.478   C78.999,35.015,79,35.008,79,35c0-11.598-9.402-21-21-21c-9.784,0-17.981,6.701-20.313,15.757C36.211,29.272,34.638,29,33,29   c-7.692,0-14.023,5.793-14.89,13.252C12.906,43.353,9,47.969,9,53.5C9,59.851,14.149,65,20.5,65c0.177,0,0.352-0.012,0.526-0.022   C21.022,65.153,21,65.324,21,65.5C21,76.822,30.178,86,41.5,86c6.437,0,12.175-2.972,15.934-7.614C59.612,80.611,62.64,82,66,82   c4.65,0,8.674-2.65,10.666-6.518C77.718,75.817,78.837,76,80,76c6.075,0,11-4.925,11-11C91,61.689,89.53,58.727,87.215,56.71z"/>
</g>
<g>
	<g>
		<path style="fill:#FDFCEF;" d="M81.5,52.5V53h3v-0.5c0,0,4.242,0,5.5,0c2.485,0,4.5-2.015,4.5-4.5    c0-2.333-1.782-4.229-4.055-4.455C90.467,43.364,90.5,43.187,90.5,43c0-2.485-2.015-4.5-4.5-4.5c-1.438,0-2.703,0.686-3.527,1.736    C82.333,37.6,80.171,35.5,77.5,35.5c-2.761,0-5,2.239-5,5c0,0.446,0.077,0.87,0.187,1.282C72.045,41.005,71.086,40.5,70,40.5    c-1.781,0-3.234,1.335-3.455,3.055C66.364,43.533,66.187,43.5,66,43.5c-2.485,0-4.5,2.015-4.5,4.5s2.015,4.5,4.5,4.5s9.5,0,9.5,0    H81.5z"/>
	</g>
	<g>
		<path style="fill:#472B29;" d="M77.5,35c-3.033,0-5.5,2.467-5.5,5.5c0,0.016,0,0.031,0,0.047C71.398,40.192,70.71,40,70,40    c-1.831,0-3.411,1.261-3.858,3.005C66.095,43.002,66.048,43,66,43c-2.757,0-5,2.243-5,5s2.243,5,5,5h15.5    c0.276,0,0.5-0.224,0.5-0.5S81.776,52,81.5,52H66c-2.206,0-4-1.794-4-4s1.794-4,4-4c0.117,0,0.23,0.017,0.343,0.032l0.141,0.019    c0.021,0.003,0.041,0.004,0.062,0.004c0.246,0,0.462-0.185,0.495-0.437C67.232,42.125,68.504,41,70,41    c0.885,0,1.723,0.401,2.301,1.1c0.098,0.118,0.241,0.182,0.386,0.182c0.078,0,0.156-0.018,0.228-0.056    c0.209-0.107,0.314-0.346,0.254-0.573C73.054,41.218,73,40.852,73,40.5c0-2.481,2.019-4.5,4.5-4.5    c2.381,0,4.347,1.872,4.474,4.263c0.011,0.208,0.15,0.387,0.349,0.45c0.05,0.016,0.101,0.024,0.152,0.024    c0.15,0,0.296-0.069,0.392-0.192C83.638,39.563,84.779,39,86,39c2.206,0,4,1.794,4,4c0,0.117-0.017,0.23-0.032,0.343l-0.019,0.141    c-0.016,0.134,0.022,0.268,0.106,0.373c0.084,0.105,0.207,0.172,0.34,0.185C92.451,44.247,94,45.949,94,48c0,2.206-1.794,4-4,4    h-5.5c-0.276,0-0.5,0.224-0.5,0.5s0.224,0.5,0.5,0.5H90c2.757,0,5-2.243,5-5c0-2.397-1.689-4.413-4.003-4.877    C90.999,43.082,91,43.041,91,43c0-2.757-2.243-5-5-5c-1.176,0-2.293,0.416-3.183,1.164C82.219,36.76,80.055,35,77.5,35L77.5,35z"/>
	</g>
	<g>
		<path style="fill:#472B29;" d="M76,42c-1.403,0-2.609,0.999-2.913,2.341C72.72,44.119,72.301,44,71.875,44    c-1.202,0-2.198,0.897-2.353,2.068C69.319,46.022,69.126,46,68.938,46c-1.529,0-2.811,1.2-2.918,2.732    C66.01,48.87,66.114,48.99,66.251,49c0.006,0,0.012,0,0.018,0c0.13,0,0.24-0.101,0.249-0.232c0.089-1.271,1.151-2.268,2.419-2.268    c0.229,0,0.47,0.042,0.738,0.127c0.022,0.007,0.045,0.01,0.067,0.01c0.055,0,0.11-0.02,0.156-0.054    C69.962,46.537,70,46.455,70,46.375c0-1.034,0.841-1.875,1.875-1.875c0.447,0,0.885,0.168,1.231,0.473    c0.047,0.041,0.106,0.063,0.165,0.063c0.032,0,0.063-0.006,0.093-0.019c0.088-0.035,0.148-0.117,0.155-0.212    C73.623,43.512,74.712,42.5,76,42.5c0.208,0,0.425,0.034,0.682,0.107c0.023,0.007,0.047,0.01,0.07,0.01    c0.109,0,0.207-0.073,0.239-0.182c0.038-0.133-0.039-0.271-0.172-0.309C76.517,42.04,76.256,42,76,42L76,42z"/>
	</g>
	<g>
		<path style="fill:#472B29;" d="M89.883,43.5c-1.326,0-2.508,0.897-2.874,2.182c-0.038,0.133,0.039,0.271,0.172,0.309    C87.205,45.997,87.228,46,87.25,46c0.109,0,0.209-0.072,0.24-0.182C87.795,44.748,88.779,44,89.883,44    c0.117,0,0.23,0.014,0.342,0.029c0.012,0.002,0.023,0.003,0.035,0.003c0.121,0,0.229-0.092,0.246-0.217    c0.019-0.137-0.077-0.263-0.214-0.281C90.158,43.516,90.022,43.5,89.883,43.5L89.883,43.5z"/>
	</g>
</g>
<g>
	<g>
		<path style="fill:#FFFFFF;" d="M21.5,45h-10c-0.276,0-0.5-0.224-0.5-0.5s0.224-0.5,0.5-0.5h10c0.276,0,0.5,0.224,0.5,0.5    S21.777,45,21.5,45z"/>
	</g>
	<g>
		<path style="fill:#FFFFFF;" d="M24.5,45h-1c-0.276,0-0.5-0.224-0.5-0.5s0.224-0.5,0.5-0.5h1c0.276,0,0.5,0.224,0.5,0.5    S24.777,45,24.5,45z"/>
	</g>
	<g>
		<path style="fill:#FFFFFF;" d="M29.491,47H20.5c-0.276,0-0.5-0.224-0.5-0.5s0.224-0.5,0.5-0.5h8.991c0.276,0,0.5,0.224,0.5,0.5    S29.767,47,29.491,47z"/>
	</g>
	<g>
		<path style="fill:#FFFFFF;" d="M18.5,47h-1c-0.276,0-0.5-0.224-0.5-0.5s0.224-0.5,0.5-0.5h1c0.276,0,0.5,0.224,0.5,0.5    S18.777,47,18.5,47z"/>
	</g>
	<g>
		<path style="fill:#FFFFFF;" d="M15.5,47h-2c-0.276,0-0.5-0.224-0.5-0.5s0.224-0.5,0.5-0.5h2c0.276,0,0.5,0.224,0.5,0.5    S15.777,47,15.5,47z"/>
	</g>
	<g>
		<path style="fill:#FFFFFF;" d="M21.5,49h-2c-0.276,0-0.5-0.224-0.5-0.5s0.224-0.5,0.5-0.5h2c0.276,0,0.5,0.224,0.5,0.5    S21.776,49,21.5,49z"/>
	</g>
	<g>
		<path style="fill:#FFFFFF;" d="M24.5,40c-0.177,0-0.823,0-1,0c-0.276,0-0.5,0.224-0.5,0.5c0,0.276,0.224,0.5,0.5,0.5    c0.177,0,0.823,0,1,0c0.276,0,0.5-0.224,0.5-0.5C25,40.224,24.776,40,24.5,40z"/>
	</g>
	<g>
		<path style="fill:#FFFFFF;" d="M24.5,42c-0.177,0-4.823,0-5,0c-0.276,0-0.5,0.224-0.5,0.5c0,0.276,0.224,0.5,0.5,0.5    c0.177,0,4.823,0,5,0c0.276,0,0.5-0.224,0.5-0.5C25,42.224,24.776,42,24.5,42z"/>
	</g>
	<g>
		<path style="fill:#FFFFFF;" d="M29.5,44c-0.177,0-2.823,0-3,0c-0.276,0-0.5,0.224-0.5,0.5c0,0.276,0.224,0.5,0.5,0.5    c0.177,0,2.823,0,3,0c0.276,0,0.5-0.224,0.5-0.5C30,44.224,29.776,44,29.5,44z"/>
	</g>
</g>
<g>
	<g>
		<path style="fill:#FFFFFF;" d="M72.5,24h-10c-0.276,0-0.5-0.224-0.5-0.5s0.224-0.5,0.5-0.5h10c0.276,0,0.5,0.224,0.5,0.5    S72.776,24,72.5,24z"/>
	</g>
	<g>
		<path style="fill:#FFFFFF;" d="M76.5,24h-2c-0.276,0-0.5-0.224-0.5-0.5s0.224-0.5,0.5-0.5h2c0.276,0,0.5,0.224,0.5,0.5    S76.776,24,76.5,24z"/>
	</g>
	<g>
		<path style="fill:#FFFFFF;" d="M81.5,26h-10c-0.276,0-0.5-0.224-0.5-0.5s0.224-0.5,0.5-0.5h10c0.276,0,0.5,0.224,0.5,0.5    S81.777,26,81.5,26z"/>
	</g>
	<g>
		<path style="fill:#FFFFFF;" d="M69.5,26h-1c-0.276,0-0.5-0.224-0.5-0.5s0.224-0.5,0.5-0.5h1c0.276,0,0.5,0.224,0.5,0.5    S69.776,26,69.5,26z"/>
	</g>
	<g>
		<path style="fill:#FFFFFF;" d="M66.47,26H64.5c-0.276,0-0.5-0.224-0.5-0.5s0.224-0.5,0.5-0.5h1.97c0.276,0,0.5,0.224,0.5,0.5    S66.746,26,66.47,26z"/>
	</g>
	<g>
		<path style="fill:#FFFFFF;" d="M75.5,22h-5c-0.276,0-0.5-0.224-0.5-0.5s0.224-0.5,0.5-0.5h5c0.276,0,0.5,0.224,0.5,0.5    S75.777,22,75.5,22z"/>
	</g>
	<g>
		<path style="fill:#FFFFFF;" d="M72.5,28h-2c-0.276,0-0.5-0.224-0.5-0.5s0.224-0.5,0.5-0.5h2c0.276,0,0.5,0.224,0.5,0.5    S72.776,28,72.5,28z"/>
	</g>
</g>
<g>
	<g>
		<g>
			<path style="fill:#00A698;" d="M52.5,75.3c-11.621,0-20.8,0-20.8-10.885c0-8.893,6.948-19.782,15.173-23.778l0.676-0.329     l-5.41-9.355c-0.44-1.522-0.253-2.987,0.52-4.028c0.585-0.789,1.43-1.224,2.379-1.224c1.312,0,2.703,0.836,3.916,2.355     c1.146,1.437,2.382,2.105,3.89,2.105c0.917,0,1.968-0.249,3.308-0.783c1.202-0.479,2.292-0.723,3.24-0.723     c1.202,0,2.132,0.406,2.62,1.145c0.467,0.707,0.504,1.652,0.103,2.592l-4.674,7.911l0.683,0.332     C66.35,44.629,73.3,55.52,73.3,64.415C73.3,75.3,64.121,75.3,52.5,75.3z"/>
		</g>
		<g>
			<path style="fill:#472B29;" d="M45.039,26.4c1.095,0,2.291,0.743,3.368,2.093c1.29,1.616,2.699,2.368,4.436,2.368     c1.009,0,2.142-0.265,3.568-0.833c1.119-0.447,2.122-0.673,2.98-0.673c0.959,0,1.682,0.295,2.036,0.831     c0.318,0.482,0.344,1.17,0.074,1.855l-4.278,7.253l-0.771,1.308l1.366,0.663C65.83,45.156,72.6,55.758,72.6,64.415     c0,9.712-7.263,10.185-20.1,10.185s-20.1-0.473-20.1-10.185c0-8.656,6.768-19.256,14.779-23.149l1.353-0.657l-0.753-1.302     l-4.989-8.629c-0.351-1.281-0.196-2.49,0.432-3.337C43.673,26.734,44.318,26.4,45.039,26.4 M45.039,25     c-2.661,0-4.583,2.809-3.547,6.23l5.074,8.777C38.09,44.126,31,55.186,31,64.415C31,76,40.675,76,52.5,76     C64.325,76,74,76,74,64.415c0-9.231-7.092-20.293-15.571-24.41l4.329-7.338c0.966-2.26-0.191-4.712-3.366-4.712     c-0.976,0-2.143,0.232-3.499,0.772c-1.177,0.469-2.169,0.734-3.049,0.734c-1.274,0-2.314-0.554-3.342-1.842     C48.024,25.769,46.431,25,45.039,25L45.039,25z"/>
		</g>
	</g>
	<g>
		<path style="fill:#FFFFFF;" d="M54.449,61.699c0-0.628-0.125-1.131-0.499-1.382c-0.374-0.377-0.874-0.628-1.747-1.005    c-0.749-0.251-1.498-0.628-2.122-0.88c-0.624-0.251-1.123-0.628-1.498-1.005s-0.749-0.88-0.998-1.382    c-0.25-0.503-0.374-1.131-0.374-1.885c0-1.257,0.374-2.262,1.123-3.016s1.872-1.257,3.12-1.382v-2.388h1.747v2.388    c1.248,0.126,2.246,0.754,2.995,1.634c0.749,0.88,1.123,2.011,1.123,3.519H54.2c0-0.88-0.125-1.508-0.499-2.011    c-0.374-0.503-0.874-0.628-1.498-0.628c-0.624,0-1.123,0.126-1.373,0.503c-0.374,0.377-0.499,0.754-0.499,1.382    c0,0.503,0.125,1.005,0.499,1.382c0.374,0.377,0.874,0.628,1.747,1.005c0.874,0.377,1.622,0.628,2.122,1.005    c0.624,0.251,0.998,0.628,1.373,1.005c0.374,0.377,0.624,0.88,0.874,1.382s0.25,1.131,0.25,1.759c0,1.257-0.374,2.262-1.123,3.016    c-0.749,0.754-1.872,1.257-3.245,1.382v2.262H51.08v-2.137c-1.498-0.126-2.621-0.754-3.494-1.634    c-0.874-0.88-1.248-2.137-1.248-3.645h3.12c0,0.88,0.25,1.508,0.624,2.011c0.374,0.503,0.998,0.754,1.747,0.754    c0.624,0,1.123-0.126,1.498-0.503C54.2,62.83,54.449,62.328,54.449,61.699z"/>
	</g>
	<g>
		<path style="fill:#472B29;" d="M42.021,57.437c-0.03,0-0.06-0.002-0.091-0.006c-0.383-0.05-0.654-0.4-0.604-0.784    c0.935-7.236,2.394-12.424,4.73-16.819l0.367-0.691l0.646,0.441c5.311,3.633,10.562,0.262,10.783,0.117    c0.323-0.214,0.757-0.123,0.969,0.199c0.213,0.321,0.125,0.755-0.197,0.968c-0.06,0.039-5.805,3.755-11.679,0.296    c-2.053,4.1-3.366,8.977-4.23,15.669C42.668,57.179,42.367,57.437,42.021,57.437z"/>
	</g>
	<g>
		<path style="fill:#472B29;" d="M38.645,54.087c-0.068,0-0.139-0.011-0.208-0.032c-0.369-0.114-0.576-0.506-0.461-0.875    c0.1-0.321,2.495-7.919,7.338-12.796c0.272-0.273,0.715-0.273,0.99-0.004c0.274,0.272,0.276,0.716,0.003,0.99    c-4.597,4.63-6.971,12.148-6.995,12.225C39.22,53.895,38.943,54.087,38.645,54.087z"/>
	</g>
	<g>
		<path style="fill:#472B29;" d="M57.636,34.4c-0.084,0-0.169-0.021-0.248-0.065c-0.24-0.138-0.323-0.443-0.186-0.683l1.513-2.646    c0.137-0.239,0.442-0.322,0.682-0.187c0.24,0.138,0.323,0.443,0.186,0.683l-1.513,2.646C57.978,34.31,57.81,34.4,57.636,34.4z"/>
	</g>
	<g>
		<path style="fill:#472B29;" d="M62.921,49.346c-0.142,0-0.282-0.06-0.381-0.176c-0.732-0.861-1.475-1.603-2.208-2.203    c-0.213-0.175-0.245-0.49-0.07-0.704c0.175-0.212,0.491-0.244,0.704-0.069c0.779,0.639,1.565,1.422,2.335,2.328    c0.179,0.211,0.153,0.526-0.057,0.705C63.151,49.307,63.036,49.346,62.921,49.346z"/>
	</g>
	<g>
		<path style="fill:#472B29;" d="M53.14,42.259c-0.084,0-0.169-0.021-0.248-0.066c-0.24-0.137-0.323-0.442-0.186-0.682l3.301-5.773    c0.137-0.239,0.443-0.323,0.682-0.186c0.24,0.137,0.323,0.442,0.186,0.682l-3.301,5.773C53.482,42.168,53.313,42.259,53.14,42.259    z"/>
	</g>
	<g>
		<path style="fill:#472B29;" d="M58.87,45.627c-0.112,0-0.225-0.038-0.319-0.115c-2.615-2.168-4.954-3.204-4.978-3.215    c-0.253-0.11-0.368-0.405-0.258-0.658c0.11-0.251,0.404-0.367,0.658-0.258c0.1,0.044,2.485,1.097,5.216,3.361    c0.212,0.176,0.242,0.491,0.065,0.704C59.157,45.565,59.014,45.627,58.87,45.627z"/>
	</g>
	<g>
		<path style="fill:#472B29;" d="M66.116,71.769c-0.241,0-0.453-0.174-0.493-0.42c-0.044-0.272,0.141-0.529,0.413-0.573    c2.584-0.422,3.399-2.133,3.821-3.575c0.513-1.756,0.292-4.434-0.638-7.744c-0.401-1.43-1.234-3.132-2.474-5.06    c-0.149-0.232-0.083-0.542,0.15-0.691c0.233-0.147,0.542-0.081,0.691,0.15c1.294,2.012,2.167,3.805,2.596,5.329    c0.995,3.542,1.209,6.333,0.635,8.296c-0.268,0.916-1.082,3.704-4.62,4.281C66.17,71.767,66.143,71.769,66.116,71.769z"/>
	</g>
	<g>
		<path style="fill:#472B29;" d="M65.908,52.829c-0.167,0-0.33-0.083-0.424-0.235c-0.343-0.548-0.678-0.937-1.416-1.758    c-0.185-0.205-0.168-0.521,0.037-0.706s0.521-0.169,0.706,0.038c0.763,0.848,1.138,1.283,1.521,1.896    c0.146,0.233,0.075,0.542-0.159,0.688C66.09,52.805,65.999,52.829,65.908,52.829z"/>
	</g>
	<g>
		<path style="fill:#472B29;" d="M38.559,37.534c1.672,0,4.016,1.116,5.476,2.126c-1.011,0.391-2.502,0.75-4.047,0.75    c-1.292,0-2.299-0.278-2.696-0.742c-0.077-0.09-0.309-0.363-0.201-1.047C37.227,37.933,37.51,37.534,38.559,37.534 M38.559,36.135    c-1.406,0-2.523,0.595-2.841,2.216c-0.411,2.573,1.763,3.459,4.27,3.459c2.592,0,5.541-0.947,6.36-1.955    C45.352,38.53,41.378,36.135,38.559,36.135L38.559,36.135z"/>
	</g>
</g>
<g>
	<g>
		<path style="fill:#FDFCEF;" d="M32.5,68.5c0,0,1.567,0,3.5,0s3.5-1.567,3.5-3.5c0-1.781-1.335-3.234-3.055-3.455    C36.473,61.366,36.5,61.187,36.5,61c0-1.933-1.567-3.5-3.5-3.5c-1.032,0-1.95,0.455-2.59,1.165    c-0.384-1.808-1.987-3.165-3.91-3.165c-2.209,0-4,1.791-4,4c0,0.191,0.03,0.374,0.056,0.558C22.128,59.714,21.592,59.5,21,59.5    c-1.228,0-2.245,0.887-2.455,2.055C18.366,61.527,18.187,61.5,18,61.5c-1.933,0-3.5,1.567-3.5,3.5s1.567,3.5,3.5,3.5s7.5,0,7.5,0    V69h7V68.5z"/>
	</g>
	<g>
		<path style="fill:#472B29;" d="M34.25,64C34.112,64,34,63.888,34,63.75c0-1.223,0.995-2.218,2.218-2.218    c0.034,0.009,0.737-0.001,1.244,0.136c0.133,0.036,0.212,0.173,0.176,0.306c-0.036,0.134-0.173,0.213-0.306,0.176    c-0.444-0.12-1.1-0.12-1.113-0.118c-0.948,0-1.719,0.771-1.719,1.718C34.5,63.888,34.388,64,34.25,64z"/>
	</g>
	<g>
		<circle style="fill:#472B29;" cx="27.5" cy="68.5" r="0.5"/>
	</g>
	<g>
		<path style="fill:#472B29;" d="M36,69h-3.5c-0.276,0-0.5-0.224-0.5-0.5s0.224-0.5,0.5-0.5H36c1.654,0,3-1.346,3-3    c0-1.496-1.125-2.768-2.618-2.959c-0.134-0.018-0.255-0.088-0.336-0.196s-0.115-0.244-0.094-0.377C35.975,61.314,36,61.16,36,61    c0-1.654-1.346-3-3-3c-0.85,0-1.638,0.355-2.219,1c-0.125,0.139-0.321,0.198-0.5,0.148c-0.182-0.049-0.321-0.195-0.36-0.379    C29.58,57.165,28.141,56,26.5,56c-1.93,0-3.5,1.57-3.5,3.5c0,0.143,0.021,0.28,0.041,0.418c0.029,0.203-0.063,0.438-0.242,0.54    c-0.179,0.102-0.396,0.118-0.556-0.01C21.878,60.155,21.449,60,21,60c-0.966,0-1.792,0.691-1.963,1.644    c-0.048,0.267-0.296,0.446-0.569,0.405C18.314,62.025,18.16,62,18,62c-1.654,0-3,1.346-3,3s1.346,3,3,3h7.5    c0.276,0,0.5,0.224,0.5,0.5S25.776,69,25.5,69H18c-2.206,0-4-1.794-4-4s1.794-4,4-4c0.059,0,0.116,0.002,0.174,0.006    C18.588,59.82,19.711,59,21,59c0.349,0,0.689,0.061,1.011,0.18C22.176,56.847,24.126,55,26.5,55c1.831,0,3.466,1.127,4.153,2.774    C31.333,57.276,32.155,57,33,57c2.206,0,4,1.794,4,4c0,0.048-0.001,0.095-0.004,0.142C38.739,61.59,40,63.169,40,65    C40,67.206,38.206,69,36,69z"/>
	</g>
	<g>
		<path style="fill:#472B29;" d="M30.5,68c-0.159,0-0.841,0-1,0c-0.276,0-0.5,0.224-0.5,0.5c0,0.276,0.224,0.5,0.5,0.5    c0.159,0,0.841,0,1,0c0.276,0,0.5-0.224,0.5-0.5C31,68.224,30.776,68,30.5,68z"/>
	</g>
</g>
</svg>
