<?xml version="1.0" encoding="iso-8859-1"?>
<!-- Generator: Adobe Illustrator 23.0.3, SVG Export Plug-In . SVG Version: 6.00 Build 0)  -->
<svg xmlns="http://www.w3.org/2000/svg" xmlns:xlink="http://www.w3.org/1999/xlink" version="1.1" x="0px" y="0px" viewBox="0 0 64 64" style="enable-background:new 0 0 64 64;" xml:space="preserve">
<g id="ae">
</g>
<g id="&#1057;&#1083;&#1086;&#1081;_2">
	<path style="fill:#5DBC9D;" d="M15,12c0,2.762-2.238,5-5,5s-5-2.238-5-5s2.238-5,5-5S15,9.238,15,12z"/>
	<path style="fill:#ACB7D0;" d="M37,58c0,2.211-1.789,4-4,4s-4-1.789-4-4s1.789-4,4-4S37,55.789,37,58z"/>
	<path style="fill:#EFC88E;" d="M47,29c0,0.922-0.09,1.82-0.262,2.691c-0.199,1.008-0.5,1.98-0.898,2.898   c-1.41,3.23-4.012,5.832-7.238,7.25c-0.922,0.398-1.902,0.699-2.91,0.898C34.82,42.91,33.922,43,33,43   c-2.43,0-4.711-0.621-6.699-1.719c-0.379-0.203-0.762-0.43-1.121-0.672c-0.039-0.031-0.078-0.059-0.121-0.09   C21.398,38,19,33.781,19,29c0-7.73,6.27-14,14-14c0.41,0,0.82,0.02,1.23,0.059c1.219,0.102,2.398,0.363,3.508,0.77   c0.82,0.293,1.602,0.66,2.34,1.094c1.063,0.629,2.043,1.387,2.891,2.258c0.57,0.582,1.09,1.199,1.551,1.871   c0.281,0.398,0.531,0.82,0.75,1.25C46.379,24.289,47,26.57,47,29z"/>
	<path style="fill:#EFC88E;" d="M11,41c0,1.656-1.344,3-3,3s-3-1.344-3-3s1.344-3,3-3S11,39.344,11,41z"/>
	<path style="fill:#7BBEEB;" d="M61,48c0,3.867-3.133,7-7,7s-7-3.133-7-7s3.133-7,7-7S61,44.133,61,48z"/>
	<path style="fill:#ED7899;" d="M63,9c0,4.418-3.582,8-8,8s-8-3.582-8-8s3.582-8,8-8S63,4.582,63,9z"/>
	<path style="fill:#8D6C9F;" d="M10,18c3.309,0,6-2.691,6-6s-2.691-6-6-6s-6,2.691-6,6S6.691,18,10,18z M10,8c2.207,0,4,1.793,4,4   s-1.793,4-4,4s-4-1.793-4-4S7.793,8,10,8z"/>
	<polygon style="fill:#7BBEEB;" points="24,39 25,33 29,29 33,30 37,29 42,34 41,40 38,42 32,43 27,42  "/>
	<path style="fill:#8D6C9F;" d="M33,53c-2.758,0-5,2.242-5,5s2.242,5,5,5s5-2.242,5-5S35.758,53,33,53z M33,61c-1.652,0-3-1.348-3-3   s1.348-3,3-3s3,1.348,3,3S34.652,61,33,61z"/>
	<path style="fill:#8D6C9F;" d="M54,40c-1.969,0-3.781,0.719-5.172,1.91l-4.047-3.648C46.801,35.711,48,32.5,48,29   c0-3.41-1.141-6.559-3.07-9.078l4.352-3.98C50.84,17.23,52.828,18,55,18c4.961,0,9-4.039,9-9s-4.039-9-9-9s-9,4.039-9,9   c0,2.07,0.699,3.98,1.879,5.5l-4.27,3.91C40.891,15.691,37.141,14,33,14c-4.711,0-8.922,2.18-11.672,5.602l-3.977-3.113   c-0.43-0.348-1.063-0.27-1.402,0.172c-0.34,0.43-0.258,1.059,0.172,1.398l4.051,3.172C18.789,23.5,18,26.148,18,29   c0,2.121,0.441,4.141,1.238,5.961l-8.098,3.559C10.41,37.59,9.27,37,8,37c-2.211,0-4,1.789-4,4s1.789,4,4,4s4-1.789,4-4   c0-0.219-0.02-0.43-0.059-0.641l8.219-3.609c2.469,4.07,6.82,6.879,11.84,7.211V50c0,0.551,0.449,1,1,1s1-0.449,1-1v-6.039   c3.672-0.242,6.969-1.801,9.449-4.211l4.031,3.629C46.551,44.68,46,46.281,46,48c0,4.41,3.59,8,8,8s8-3.59,8-8S58.41,40,54,40z    M48,9c0-3.859,3.141-7,7-7s7,3.141,7,7s-3.141,7-7,7c-1.59,0-3.051-0.531-4.23-1.43c-0.539-0.398-1.008-0.891-1.41-1.43   C48.5,11.98,48,10.551,48,9z M8,43c-1.102,0-2-0.898-2-2s0.898-2,2-2c0.441,0,0.852,0.141,1.18,0.391C9.68,39.75,10,40.34,10,41   c0,0.078,0,0.148-0.012,0.219C9.879,42.219,9.02,43,8,43z M34,41.961C33.672,41.988,33.34,42,33,42s-0.672-0.012-1-0.039   c-4.211-0.32-7.859-2.652-9.988-6.031c-0.363-0.559-0.684-1.16-0.953-1.77C20.379,32.57,20,30.828,20,29   c0-2.371,0.641-4.602,1.762-6.52c0.328-0.582,0.707-1.129,1.137-1.652C25.281,17.891,28.922,16,33,16   c3.559,0,6.789,1.441,9.141,3.762c0.48,0.469,0.918,0.977,1.309,1.52C45.051,23.441,46,26.121,46,29   c0,2.969-1.012,5.719-2.699,7.922c-0.402,0.527-0.852,1.027-1.34,1.488C39.859,40.422,37.07,41.73,34,41.961z M54,54   c-3.309,0-6-2.691-6-6c0-1.211,0.359-2.34,0.98-3.281c0.359-0.559,0.82-1.059,1.348-1.457C51.34,42.469,52.621,42,54,42   c3.309,0,6,2.691,6,6S57.309,54,54,54z"/>
	<circle style="fill:#FAEFDE;" cx="33" cy="25" r="5"/>
	<circle style="fill:none;stroke:#8D6C9F;stroke-width:2;stroke-miterlimit:10;" cx="33" cy="25" r="5"/>
	<path style="fill:none;stroke:#8D6C9F;stroke-width:2;stroke-miterlimit:10;" d="M36,29.071c3.392,0.485,6,3.403,6,6.929v4"/>
	<path style="fill:none;stroke:#8D6C9F;stroke-width:2;stroke-miterlimit:10;" d="M30,29.071c-3.392,0.485-6,3.403-6,6.929v4"/>
	<g>
		<g>
			<path style="fill:#8D6C9F;" d="M23.003,15.104c-0.282-0.033-0.547-0.185-0.716-0.44l-1.108-1.666     c-0.306-0.46-0.181-1.08,0.279-1.386c0.461-0.306,1.081-0.181,1.386,0.279l1.108,1.666c0.306,0.46,0.181,1.08-0.279,1.386     C23.468,15.079,23.23,15.13,23.003,15.104z"/>
		</g>
	</g>
	<g>
		<g>
			<path style="fill:#8D6C9F;" d="M27.191,13.048c-0.372-0.044-0.705-0.296-0.832-0.675l-0.637-1.896     c-0.176-0.524,0.106-1.09,0.63-1.266c0.523-0.176,1.09,0.105,1.266,0.63l0.637,1.896c0.176,0.524-0.106,1.09-0.63,1.266     C27.481,13.051,27.333,13.065,27.191,13.048z"/>
		</g>
	</g>
	<g>
		<g>
			<path style="fill:#8D6C9F;" d="M31.769,12.171c-0.471-0.055-0.85-0.441-0.88-0.931l-0.123-1.996     c-0.034-0.551,0.385-1.026,0.936-1.06c0.556-0.037,1.026,0.386,1.06,0.936l0.123,1.996c0.034,0.551-0.385,1.026-0.936,1.06     C31.888,12.18,31.828,12.178,31.769,12.171z"/>
		</g>
	</g>
	<g>
		<g>
			<path style="fill:#8D6C9F;" d="M36.428,12.469c-0.027-0.003-0.054-0.007-0.082-0.013c-0.541-0.109-0.892-0.636-0.783-1.178     l0.395-1.961c0.109-0.541,0.638-0.891,1.178-0.783c0.541,0.109,0.892,0.636,0.783,1.178l-0.395,1.961     C37.421,12.187,36.94,12.529,36.428,12.469z"/>
		</g>
	</g>
	<g>
		<g>
			<path style="fill:#8D6C9F;" d="M40.836,13.993c-0.112-0.013-0.223-0.045-0.329-0.099c-0.494-0.246-0.696-0.846-0.449-1.341     l0.891-1.79c0.246-0.494,0.845-0.698,1.341-0.449c0.494,0.246,0.696,0.846,0.449,1.341l-0.891,1.79     C41.654,13.833,41.243,14.041,40.836,13.993z"/>
		</g>
	</g>
</g>
<g id="&#1057;&#1083;&#1086;&#1081;_3">
</g>
</svg>
