<?xml version="1.0" encoding="iso-8859-1"?>
<!-- Generator: Adobe Illustrator 22.1.0, SVG Export Plug-In . SVG Version: 6.00 Build 0)  -->
<svg xmlns="http://www.w3.org/2000/svg" xmlns:xlink="http://www.w3.org/1999/xlink" version="1.1" id="Layer_1" x="0px" y="0px" viewBox="0 0 100 100" style="enable-background:new 0 0 100 100;" xml:space="preserve">
<g>
	<g>
		<g>
			<g>
				<circle style="fill:#F1BC19;" cx="77" cy="13" r="1"/>
			</g>
			<g>
				<circle style="fill:#E6EDB7;" cx="50" cy="50" r="37"/>
			</g>
			<g>
				<circle style="fill:#F1BC19;" cx="83" cy="15" r="4"/>
			</g>
			<g>
				<circle style="fill:#88AE45;" cx="87" cy="24" r="2"/>
			</g>
			<g>
				<circle style="fill:#FBCD59;" cx="81" cy="76" r="2"/>
			</g>
			<g>
				<circle style="fill:#FBCD59;" cx="15" cy="63" r="4"/>
			</g>
			<g>
				<circle style="fill:#88AE45;" cx="25" cy="87" r="2"/>
			</g>
			<g>
				<circle style="fill:#FFFFFF;" cx="18.5" cy="51.5" r="2.5"/>
			</g>
			<g>
				<circle style="fill:#FFFFFF;" cx="79.5" cy="33.5" r="1.5"/>
			</g>
		</g>
	</g>
</g>
<g>
	<circle style="fill:#F9E65C;" cx="50" cy="49.875" r="24.25"/>
	<path style="fill:#472B29;" d="M50,74.825c-13.757,0-24.95-11.192-24.95-24.95S36.243,24.925,50,24.925s24.95,11.192,24.95,24.95   S63.757,74.825,50,74.825z M50,26.325c-12.985,0-23.55,10.564-23.55,23.55S37.015,73.425,50,73.425s23.55-10.564,23.55-23.55   S62.985,26.325,50,26.325z"/>
</g>
<g>
	<circle style="fill:#78CDD4;" cx="50" cy="49.875" r="20.5"/>
</g>
<g>
	<path style="fill:#472B29;" d="M69.424,44.625c-0.214,0-0.412-0.139-0.478-0.354c-0.088-0.287-0.183-0.571-0.284-0.853   c-0.392-1.094-0.886-2.159-1.47-3.169c-0.139-0.238-0.057-0.545,0.182-0.683c0.239-0.141,0.545-0.057,0.683,0.183   c0.614,1.061,1.134,2.182,1.546,3.331c0.106,0.297,0.206,0.595,0.298,0.897c0.081,0.264-0.067,0.544-0.332,0.625   C69.521,44.618,69.472,44.625,69.424,44.625z"/>
</g>
<g>
	<path style="fill:#F15B6C;" d="M50,50V30c-4,0-13,2-17,9C36.938,41.438,50,50,50,50z"/>
</g>
<g>
	<path style="fill:#472B29;" d="M50,70.75c-11.511,0-20.875-9.337-20.875-20.813S38.489,29.125,50,29.125   c5.975,0,11.674,2.56,15.636,7.023c0.299,0.337,0.588,0.685,0.865,1.041c0.169,0.218,0.13,0.531-0.087,0.701   c-0.218,0.171-0.532,0.131-0.702-0.088c-0.264-0.339-0.54-0.669-0.824-0.99c-3.772-4.25-9.199-6.688-14.888-6.688   c-10.959,0-19.875,8.888-19.875,19.813S39.041,69.75,50,69.75s19.875-8.888,19.875-19.813c0-0.995-0.075-1.996-0.222-2.973   c-0.041-0.272,0.147-0.527,0.42-0.568c0.28-0.045,0.528,0.147,0.569,0.42c0.154,1.025,0.233,2.076,0.233,3.121   C70.875,61.413,61.511,70.75,50,70.75z"/>
</g>
<g>
	<path style="fill:#472B29;" d="M50,50.5c-0.093,0-0.187-0.026-0.271-0.08l-11.333-7.333c-0.232-0.15-0.298-0.46-0.148-0.691   c0.15-0.232,0.459-0.298,0.691-0.148l11.333,7.333c0.232,0.15,0.298,0.46,0.148,0.691C50.324,50.42,50.164,50.5,50,50.5z"/>
</g>
<g>
	<circle style="fill:#472B29;" cx="50" cy="49.875" r="1.875"/>
</g>
<g>
	<circle style="fill:#F15B6C;" cx="50" cy="25" r="2.5"/>
	<path style="fill:#472B29;" d="M50,28c-1.654,0-3-1.346-3-3s1.346-3,3-3s3,1.346,3,3S51.654,28,50,28z M50,23c-1.103,0-2,0.897-2,2   s0.897,2,2,2s2-0.897,2-2S51.103,23,50,23z"/>
</g>
<g>
	<path style="fill:#472B29;" d="M38.924,46.09c-0.229,0-0.435-0.158-0.487-0.391l-0.875-3.903l3.903-0.874   c0.275-0.053,0.537,0.11,0.597,0.379c0.061,0.27-0.109,0.537-0.378,0.598l-2.928,0.655l0.656,2.927   c0.061,0.27-0.109,0.537-0.378,0.598C38.998,46.086,38.96,46.09,38.924,46.09z"/>
</g>
<g>
	<path style="fill:#472B29;" d="M49.5,36c-0.276,0-0.5-0.224-0.5-0.5v-3c0-0.276,0.224-0.5,0.5-0.5s0.5,0.224,0.5,0.5v3   C50,35.776,49.776,36,49.5,36z"/>
</g>
<g>
	<path style="fill:#472B29;" d="M49.5,68c-0.276,0-0.5-0.224-0.5-0.5v-3c0-0.276,0.224-0.5,0.5-0.5s0.5,0.224,0.5,0.5v3   C50,67.776,49.776,68,49.5,68z"/>
</g>
<g>
	<path style="fill:#472B29;" d="M35,50.5h-3c-0.276,0-0.5-0.224-0.5-0.5s0.224-0.5,0.5-0.5h3c0.276,0,0.5,0.224,0.5,0.5   S35.276,50.5,35,50.5z"/>
</g>
<g>
	<path style="fill:#472B29;" d="M67,50.5h-3c-0.276,0-0.5-0.224-0.5-0.5s0.224-0.5,0.5-0.5h3c0.276,0,0.5,0.224,0.5,0.5   S67.276,50.5,67,50.5z"/>
</g>
</svg>
